<svg width="192" height="192" viewBox="0 0 192 192" fill="none" xmlns="http://www.w3.org/2000/svg">
<g clip-path="url(#clip0_114_9)">
<path d="M93.8559 182.375H0V-9.625H192V182.375H99.1523H93.8559ZM93.8559 182.375L93.7686 182.3C93.4044 182.069 92.4264 182.103 91.9693 182.056C90.2261 181.884 88.4826 181.747 86.7473 181.503C83.8118 181.087 80.8793 180.584 78.0188 179.793C52.3442 172.702 30.3133 152.31 22.1055 126.862C20.8491 122.967 19.9823 119.097 19.3395 115.06C18.9508 112.618 18.6164 110.159 18.4929 107.688C18.2589 103.008 18.579 98.4871 19.2724 93.8643C20.523 85.5273 23.0003 77.6731 26.8519 70.1724C29.5656 64.8877 32.9325 59.7733 36.7926 55.2551C39.8301 51.6995 43.2337 48.4775 46.8422 45.5105C55.0916 38.7277 64.4096 33.5238 74.5853 30.2546C79.4888 28.6792 84.7331 27.4901 89.877 27.14L89.961 20.2934C88.7272 20.3079 87.4931 20.3186 86.2594 20.3204C85.5988 20.3214 84.8501 20.3857 84.204 20.2434C83.526 20.0941 82.7722 19.6644 82.2924 19.1763C81.471 18.3406 81.0709 17.0324 81.1228 15.875C81.1798 14.6062 81.6703 13.4634 82.6249 12.6194C83.3407 11.9866 84.2413 11.6383 85.1796 11.5018C86.2537 11.3454 87.4166 11.4202 88.5036 11.42C90.4026 11.42 92.3016 11.4228 94.2006 11.4251C96.8576 11.4282 99.5147 11.4202 102.172 11.4262C103.678 11.4296 105.238 11.3767 106.739 11.4924C107.946 11.5856 109.003 12.1589 109.778 13.0816C110.554 14.006 110.959 15.2534 110.825 16.4626C110.702 17.5764 110.227 18.7259 109.31 19.4186C108.105 20.33 106.639 20.3176 105.198 20.3405C104.221 20.3561 103.243 20.3654 102.265 20.375L102.306 27.1154C107.423 27.8281 112.403 28.7285 117.345 30.2757C124.958 32.6594 132.013 36.2424 138.617 40.6931C145.846 45.5652 152.475 51.5023 157.744 58.4743C161.738 63.7597 165.148 69.4198 167.766 75.5107C171.66 84.5705 173.709 94.739 173.618 104.601C173.585 108.189 173.213 111.757 172.716 115.308C172.261 118.557 171.439 121.678 170.522 124.82C167.541 135.027 162.469 144.912 155.62 153.078C151.861 157.561 147.541 161.593 142.874 165.111C139.691 167.511 136.288 169.625 132.811 171.57C125.428 175.699 117.634 178.874 109.362 180.688C107.059 181.192 104.732 181.499 102.393 181.783C101.248 181.919 99.7961 181.876 98.7208 182.247L99.1523 182.375H192V-9.625H0V182.375H93.8559ZM95.0638 38.3272C93.564 38.3508 92.0436 38.3354 90.5496 38.4716C74.9747 39.8896 60.0952 47.5994 49.2585 58.7623C41.1786 67.0856 34.77 77.5762 31.974 88.9062C30.6081 94.4407 30.1644 100.114 30.2548 105.801C30.3523 111.928 31.3271 118.224 33.2338 124.056C36.4369 133.854 42.3094 142.841 49.7002 149.986C61.1452 161.05 75.6919 168.965 91.7158 170.322C93.5447 170.477 95.478 170.451 97.3134 170.418L97.4004 170.416C114.868 170.023 131.411 161.424 143.35 148.938C152.922 138.928 159.222 126.156 161.238 112.446C161.667 109.522 161.973 106.453 161.908 103.494C161.591 89.0441 156.035 74.6497 146.938 63.4696C145.473 61.6694 143.957 59.8212 142.271 58.2222C140.578 56.6154 138.832 54.9639 137.016 53.5017C127.59 45.9153 115.766 40.4574 103.745 38.8149C100.855 38.42 97.9774 38.2989 95.0638 38.3272Z" fill="#6AB628"/>
<path d="M93.9839 56.7911C94.5466 56.7085 95.1608 56.7426 95.6894 56.9652C96.1705 57.1678 96.5095 57.5136 96.8093 57.9323C97.9652 59.5463 98.7745 61.6648 99.5961 63.4695C100.66 65.8056 101.756 68.1173 102.702 70.506C104.482 75.0012 105.861 79.7125 106.257 84.5472C106.768 90.7776 105.486 97.0028 103.011 102.704C104.162 102.89 105.285 103.188 106.419 103.454C112.519 104.89 118.065 107.21 123.16 110.907C128.956 115.114 133.636 120.988 137.359 127.058C138.151 128.349 139.305 129.962 139.483 131.491C139.568 132.219 139.273 133.21 138.768 133.748C138.36 134.182 137.822 134.431 137.257 134.587C135.211 135.151 132.727 134.967 130.605 134.998C123.86 135.056 116.933 134.768 110.393 132.991C107.432 132.186 104.533 131.013 101.809 129.609C95.3384 126.272 88.6495 121.053 86.2754 113.904C85.8537 112.634 85.5882 111.306 85.3862 109.985C85.2604 109.161 85.2147 108.336 85.0165 107.523C84.5924 105.784 83.7559 104.049 83.2099 102.331C82.1288 98.9299 81.745 95.4398 81.75 91.8844C81.7559 87.7862 82.2602 83.7617 83.2619 79.7877C84.5297 74.7574 86.5613 69.8738 88.7179 65.1638C89.6656 63.0938 90.5972 60.9945 91.6482 58.9752C92.2291 57.859 92.7409 57.1864 93.9839 56.7911Z" fill="#B3E45E"/>
<path d="M58.4252 11.4284C60.0194 11.3344 61.6356 11.392 63.2331 11.3969C65.7824 11.4046 68.3312 11.4068 70.8805 11.4059C79.7652 11.4028 88.6504 11.4332 97.5349 11.4104C105.584 11.3898 113.632 11.4086 121.68 11.4097C124.245 11.4101 126.809 11.4108 129.374 11.4122C130.794 11.413 132.271 11.338 133.685 11.4636C134.525 11.5382 135.324 11.905 135.993 12.4085C136.905 13.0943 137.634 14.1702 137.765 15.3158C137.905 16.5333 137.594 17.7046 136.811 18.6586C135.905 19.7609 134.789 20.2137 133.404 20.3243C127.851 20.4059 122.287 20.3394 116.732 20.3389C106.3 20.3381 95.8669 20.3361 85.4344 20.334C79.4517 20.3329 73.4689 20.3373 67.4862 20.3365C65.607 20.3363 63.7281 20.3358 61.849 20.3348C60.72 20.3341 59.5669 20.3803 58.441 20.2994C57.6375 20.2417 56.8109 19.9411 56.154 19.4752C55.2535 18.8365 54.5517 17.7152 54.4167 16.6153C54.2614 15.3491 54.5355 14.1942 55.3144 13.1721C56.0811 12.1661 57.1911 11.6043 58.4252 11.4284Z" fill="#6AB628"/>
<path d="M153.735 21.5531L156.08 21.5C161.488 21.7387 166.797 24.3419 170.408 28.3409C173.936 32.2486 175.671 37.7439 175.398 42.9663C175.183 47.0954 173.941 50.7252 171.321 53.9609C170.456 55.0301 169.477 55.9599 168.461 56.8811L163.799 52.2914C161.34 49.8481 158.773 47.5588 156.151 45.2945C153.579 43.073 150.981 40.8866 148.247 38.8642C146.053 37.2402 143.838 35.6118 141.592 34.0619C140.682 33.4346 139.769 32.8145 138.851 32.1989C138.461 31.9376 137.937 31.6737 137.625 31.3349L139.72 28.5432C142.365 25.3852 145.908 23.1234 149.911 22.1221C151.18 21.8047 152.437 21.6672 153.735 21.5531Z" fill="#6AB628"/>
<path d="M35.4168 21.553C37.855 21.3839 40.1694 21.6181 42.5266 22.2738C46.5322 23.3881 49.6255 25.5771 52.2804 28.7189C53.021 29.5953 53.7717 30.5146 54.3359 31.5158C45.5967 37.2228 37.115 43.7348 29.6472 51.0381L23.6982 57.0301C19.8519 53.537 17.2567 49.5995 16.6455 44.3463C16.0044 38.8355 17.4871 33.424 20.9806 29.0941C24.5892 24.6216 29.7682 22.1686 35.4168 21.553Z" fill="#6AB628"/>
</g>
<defs>
<clipPath id="clip0_114_9">
<rect width="192" height="192" fill="white"/>
</clipPath>
</defs>
</svg>
